<?xml version="1.0" standalone="no"?>
<!DOCTYPE svg PUBLIC "-//W3C//DTD SVG 20010904//EN"
 "http://www.w3.org/TR/2001/REC-SVG-20010904/DTD/svg10.dtd">
<svg version="1.0" xmlns="http://www.w3.org/2000/svg"
 width="2560.000000pt" height="2560.000000pt" viewBox="0 0 2560.000000 2560.000000"
 preserveAspectRatio="xMidYMid meet">

<g transform="translate(0.000000,2560.000000) scale(0.100000,-0.100000)"
fill="#ffffff" stroke="none">
<path d="M8250 12841 l0 -5441 1403 0 c1598 0 1675 3 2017 66 524 97 987 341
1280 676 286 326 468 753 539 1259 38 275 43 412 38 1154 -4 738 -7 795 -53
1070 -41 243 -116 482 -214 681 -195 394 -494 670 -905 834 -125 50 -124 61 2
121 294 140 546 377 710 669 132 233 224 554 269 935 21 176 30 912 15 1173
-28 478 -108 829 -260 1137 -39 77 -96 179 -128 227 -289 432 -745 701 -1378
813 -338 60 -302 58 -1882 62 l-1453 4 0 -5440z m2695 3879 c118 -17 186 -38
281 -85 237 -119 365 -348 410 -733 22 -188 15 -1145 -10 -1265 -76 -382 -234
-602 -509 -708 -180 -69 -204 -72 -709 -76 l-458 -4 0 1434 c0 788 3 1437 7
1440 10 11 911 8 988 -3z m93 -4444 c125 -22 264 -68 342 -113 36 -21 101 -74
146 -118 124 -123 189 -249 238 -465 52 -232 66 -456 66 -1085 0 -629 -16
-829 -80 -1028 -72 -223 -206 -374 -400 -451 -25 -10 -83 -27 -130 -39 -80
-19 -120 -21 -677 -24 l-593 -4 0 1676 0 1677 498 -5 c399 -3 515 -8 590 -21z"/>
<path d="M14352 13863 l3 -1838 460 -3 c485 -3 687 5 883 39 219 37 370 83
548 169 327 156 552 375 709 690 185 370 245 942 150 1423 -41 201 -103 368
-199 530 -281 474 -808 751 -1556 817 -63 5 -314 10 -558 10 l-442 0 2 -1837z"/>
<path d="M15654 11219 c-21 -34 -1934 -3803 -1934 -3811 0 -4 876 -8 1946 -8
l1945 0 -149 293 c-82 160 -452 888 -822 1617 -996 1961 -977 1924 -986 1909z"/>
</g>
</svg>
